<?xml version="1.0" encoding="utf-8"?>
<!-- Generator: Adobe Illustrator 17.0.0, SVG Export Plug-In . SVG Version: 6.00 Build 0)  -->
<!DOCTYPE svg PUBLIC "-//W3C//DTD SVG 1.1//EN" "http://www.w3.org/Graphics/SVG/1.1/DTD/svg11.dtd">
<svg version="1.1" id="Your_Icon" xmlns="http://www.w3.org/2000/svg" xmlns:xlink="http://www.w3.org/1999/xlink" x="0px" y="0px"
	 width="100px" height="100px" viewBox="0 0 100 100" enable-background="new 0 0 100 100" xml:space="preserve">
<g>
	<path d="M51.429,65.251c-8.326,0-15.1-6.773-15.1-15.099c0-8.325,6.773-15.099,15.1-15.099c1.866,0,3.688,0.337,5.415,1.001
		c0.773,0.297,1.159,1.165,0.862,1.938c-0.298,0.773-1.168,1.159-1.938,0.861c-1.383-0.531-2.842-0.801-4.339-0.801
		c-6.672,0-12.1,5.427-12.1,12.099s5.428,12.099,12.1,12.099c6.671,0,12.099-5.428,12.099-12.099c0-1.211-0.179-2.408-0.53-3.555
		c-0.243-0.792,0.201-1.631,0.993-1.874c0.789-0.241,1.632,0.202,1.874,0.994c0.44,1.433,0.663,2.925,0.663,4.435
		C66.527,58.478,59.754,65.251,51.429,65.251z"/>
</g>
<g>
	<path d="M58.038,57.431c-0.427,0-0.85-0.181-1.146-0.532l-9.977-11.525c-0.535-0.633-0.455-1.579,0.177-2.114
		c0.635-0.535,1.579-0.455,2.114,0.177l9.977,11.525c0.535,0.633,0.455,1.579-0.177,2.114C58.723,57.315,58.38,57.431,58.038,57.431
		z"/>
</g>
<g>
	<path d="M49.526,58.935c-0.188,0-0.379-0.036-0.563-0.111c-0.767-0.312-1.137-1.185-0.826-1.952
		c0.142-0.347,5.682-12.306,13.138-17.661c0.672-0.482,1.609-0.331,2.094,0.343c0.482,0.673,0.329,1.61-0.344,2.093
		C56.293,46.482,50.948,57.923,50.917,58C50.679,58.582,50.118,58.935,49.526,58.935z"/>
</g>
</svg>
